<svg width="37" height="37" viewBox="0 0 37 37" fill="none" xmlns="http://www.w3.org/2000/svg">
<path d="M14.6582 9.6709H17.2277C18.6467 9.6709 20.386 10.6591 21.1125 11.8782L24.2927 17.2153H30.075C30.7845 17.2153 31.3597 17.7905 31.3597 18.5C31.3597 19.2096 30.7845 19.7847 30.075 19.7847H24.1705L20.9902 25.1219C20.2638 26.3409 18.5245 27.3291 17.1054 27.3291H14.536L19.0316 19.7847H10.0527L8.20983 22.936H5.64038L8.23463 18.5V18.4576L5.66519 14.064H8.23463L10.0776 17.2153H19.1538L14.6582 9.6709Z" fill="#2D2D2D"/>
<mask id="mask0_5366_108" style="mask-type:alpha" maskUnits="userSpaceOnUse" x="5" y="9" width="27" height="19">
<path d="M14.6582 9.6709H17.2277C18.6467 9.6709 20.386 10.6591 21.1125 11.8782L24.2927 17.2153H30.075C30.7845 17.2153 31.3597 17.7905 31.3597 18.5C31.3597 19.2096 30.7845 19.7847 30.075 19.7847H24.1705L20.9902 25.1219C20.2638 26.3409 18.5245 27.3291 17.1054 27.3291H14.536L19.0316 19.7847H10.0527L8.20983 22.936H5.64038L8.23463 18.5V18.4576L5.66519 14.064H8.23463L10.0776 17.2153H19.1538L14.6582 9.6709Z" fill="white"/>
</mask>
<g mask="url(#mask0_5366_108)">
</g>
</svg>
