<svg width="37" height="37" viewBox="0 0 37 37" fill="none" xmlns="http://www.w3.org/2000/svg">
<path fill-rule="evenodd" clip-rule="evenodd" d="M5.65277 27.4931C5.65277 29.6218 7.37835 31.3473 9.50694 31.3473H27.493C29.6217 31.3473 31.3472 29.6218 31.3472 27.4931V9.507C31.3472 7.37841 29.6217 5.65283 27.493 5.65283H9.50694C7.37835 5.65283 5.65277 7.37841 5.65277 9.507V27.4931ZM28.7778 27.4931C28.7778 28.2027 28.2026 28.7778 27.493 28.7778H9.50693C8.79741 28.7778 8.22221 28.2027 8.22221 27.4931V9.507C8.22221 8.79747 8.79741 8.22228 9.50693 8.22228H15.9305V18.5143L19.0075 18.5144L21.0696 15.7561L23.1315 18.5144H26.2084L26.2083 8.22228H27.493C28.2026 8.22228 28.7778 8.79747 28.7778 9.507V27.4931ZM18.5 8.22228H23.6389V15.0772L21.0696 11.6402L18.5 15.0774V8.22228Z" fill="#2D2D2D"/>
<mask id="mask0_5366_68" style="mask-type:alpha" maskUnits="userSpaceOnUse" x="5" y="5" width="27" height="27">
<path fill-rule="evenodd" clip-rule="evenodd" d="M5.65277 27.4931C5.65277 29.6218 7.37835 31.3473 9.50694 31.3473H27.493C29.6217 31.3473 31.3472 29.6218 31.3472 27.4931V9.507C31.3472 7.37841 29.6217 5.65283 27.493 5.65283H9.50694C7.37835 5.65283 5.65277 7.37841 5.65277 9.507V27.4931ZM28.7778 27.4931C28.7778 28.2027 28.2026 28.7778 27.493 28.7778H9.50693C8.79741 28.7778 8.22221 28.2027 8.22221 27.4931V9.507C8.22221 8.79747 8.79741 8.22228 9.50693 8.22228H15.9305V18.5143L19.0075 18.5144L21.0696 15.7561L23.1315 18.5144H26.2084L26.2083 8.22228H27.493C28.2026 8.22228 28.7778 8.79747 28.7778 9.507V27.4931ZM18.5 8.22228H23.6389V15.0772L21.0696 11.6402L18.5 15.0774V8.22228Z" fill="white"/>
</mask>
<g mask="url(#mask0_5366_68)">
</g>
</svg>
