<svg width="13" height="21" viewBox="0 0 13 21" fill="none" xmlns="http://www.w3.org/2000/svg">
<path d="M3.48391 20.7258H7.78952V12.104H11.6689L12.0951 7.81965H7.78952V5.65636C7.78952 5.06189 8.27142 4.57997 8.86591 4.57997H12.0951V0.274414H8.86591C5.89346 0.274414 3.48391 2.684 3.48391 5.65636V7.81965H1.33113L0.904999 12.104H3.48391V20.7258Z" fill="#3C5B9A"/>
<mask id="mask0_0_70" style="mask-type:alpha" maskUnits="userSpaceOnUse" x="0" y="0" width="13" height="21">
<path d="M3.48391 20.7258H7.78952V12.104H11.6689L12.0951 7.81965H7.78952V5.65636C7.78952 5.06189 8.27142 4.57997 8.86591 4.57997H12.0951V0.274414H8.86591C5.89346 0.274414 3.48391 2.684 3.48391 5.65636V7.81965H1.33113L0.904999 12.104H3.48391V20.7258Z" fill="white"/>
</mask>
<g mask="url(#mask0_0_70)">
</g>
</svg>
