<svg width="10" height="16" viewBox="0 0 10 16" fill="none" xmlns="http://www.w3.org/2000/svg">
<path d="M8.39997 0C8.95226 0 9.39998 0.447715 9.39998 1V2.2C9.39998 2.75228 8.95226 3.2 8.39998 3.2H6.99998C6.44798 3.2 6.19998 3.848 6.19998 4.4V6.4H7.59998C8.15226 6.4 8.59998 6.84772 8.59998 7.4V8.6C8.59998 9.15228 8.15226 9.6 7.59998 9.6H6.19998V15C6.19998 15.5523 5.75226 16 5.19998 16H3.99998C3.44769 16 2.99998 15.5523 2.99998 15V9.6H1.59997C1.04769 9.6 0.599976 9.15229 0.599976 8.6V7.4C0.599976 6.84772 1.04769 6.4 1.59998 6.4H2.99998V3.2C2.99998 1.43269 4.43266 0 6.19998 0H8.39997Z" fill="white"/>
<mask id="mask0_0_43" style="mask-type:alpha" maskUnits="userSpaceOnUse" x="0" y="0" width="10" height="16">
<path d="M8.39997 0C8.95226 0 9.39998 0.447715 9.39998 1V2.2C9.39998 2.75228 8.95226 3.2 8.39998 3.2H6.99998C6.44798 3.2 6.19998 3.848 6.19998 4.4V6.4H7.59998C8.15226 6.4 8.59998 6.84772 8.59998 7.4V8.6C8.59998 9.15228 8.15226 9.6 7.59998 9.6H6.19998V15C6.19998 15.5523 5.75226 16 5.19998 16H3.99998C3.44769 16 2.99998 15.5523 2.99998 15V9.6H1.59997C1.04769 9.6 0.599976 9.15229 0.599976 8.6V7.4C0.599976 6.84772 1.04769 6.4 1.59998 6.4H2.99998V3.2C2.99998 1.43269 4.43266 0 6.19998 0H8.39997Z" fill="white"/>
</mask>
<g mask="url(#mask0_0_43)">
</g>
</svg>
