<svg width="37" height="37" viewBox="0 0 37 37" fill="none" xmlns="http://www.w3.org/2000/svg">
<path fill-rule="evenodd" clip-rule="evenodd" d="M23.1256 3.08325H10.1922C8.82041 3.08325 7.70837 4.2607 7.70837 5.71315V29.3823C7.70837 30.8347 8.82041 32.0122 10.1922 32.0122H27.5787C28.9505 32.0122 30.0625 30.8347 30.0625 29.3823V10.4283L23.1256 3.08325ZM10.1922 5.71315H20.1274V10.973C20.1274 12.4254 21.2394 13.6029 22.6112 13.6029H27.5787V29.3823H10.1922V5.71315ZM22.6112 10.973V6.2579L27.0643 10.973H22.6112ZM22.9749 16.6179L17.6436 22.2628L14.7961 19.2478L13.0398 21.1074L17.6436 25.9821L24.7313 18.4775L22.9749 16.6179Z" fill="#262626"/>
</svg>
