<svg width="37" height="37" viewBox="0 0 37 37" fill="none" xmlns="http://www.w3.org/2000/svg">
<path fill-rule="evenodd" clip-rule="evenodd" d="M21.0962 5.3868L30.0625 14.3531V32.7421H21.0694V25.0338C21.0694 23.6147 19.9191 22.4644 18.5 22.4644C17.0809 22.4644 15.9306 23.6147 15.9306 25.0338V32.7421H6.9375V14.0949L15.6456 5.3868C17.1507 3.88165 19.591 3.88165 21.0962 5.3868ZM9.50694 15.1591L17.4625 7.20364C17.9641 6.70193 18.7776 6.70193 19.2793 7.20364L27.4931 15.4174V30.1727H23.6389V25.0338C23.6389 22.1957 21.3381 19.8949 18.5 19.8949C15.6619 19.8949 13.3611 22.1957 13.3611 25.0338V30.1727H9.50694V15.1591Z" fill="#2D2D2D"/>
<mask id="mask0_5366_89" style="mask-type:alpha" maskUnits="userSpaceOnUse" x="6" y="4" width="25" height="29">
<path fill-rule="evenodd" clip-rule="evenodd" d="M21.0962 5.3868L30.0625 14.3531V32.7421H21.0694V25.0338C21.0694 23.6147 19.9191 22.4644 18.5 22.4644C17.0809 22.4644 15.9306 23.6147 15.9306 25.0338V32.7421H6.9375V14.0949L15.6456 5.3868C17.1507 3.88165 19.591 3.88165 21.0962 5.3868ZM9.50694 15.1591L17.4625 7.20364C17.9641 6.70193 18.7776 6.70193 19.2793 7.20364L27.4931 15.4174V30.1727H23.6389V25.0338C23.6389 22.1957 21.3381 19.8949 18.5 19.8949C15.6619 19.8949 13.3611 22.1957 13.3611 25.0338V30.1727H9.50694V15.1591Z" fill="white"/>
</mask>
<g mask="url(#mask0_5366_89)">
</g>
</svg>
