<svg width="16" height="17" viewBox="0 0 16 17" fill="none" xmlns="http://www.w3.org/2000/svg">
<path fill-rule="evenodd" clip-rule="evenodd" d="M14.7097 1.99494C13.871 1.12398 12.6774 0.672363 11.3226 0.672363H4.67742C1.87097 0.672363 0 2.54333 0 5.34978V11.9627C0 13.3498 0.451613 14.5433 1.35484 15.4143C2.22581 16.253 3.3871 16.6724 4.70968 16.6724H11.2903C12.6774 16.6724 13.8387 16.2208 14.6774 15.4143C15.5484 14.5756 16 13.382 16 11.9949V5.34978C16 3.99494 15.5484 2.83365 14.7097 1.99494ZM12.2903 5.34978C12.807 5.34978 13.2258 4.93095 13.2258 4.4143C13.2258 3.89765 12.807 3.47881 12.2903 3.47881C11.7737 3.47881 11.3548 3.89765 11.3548 4.4143C11.3548 4.93095 11.7737 5.34978 12.2903 5.34978ZM8 4.51107C5.74194 4.51107 3.87097 6.34978 3.87097 8.64011C3.87097 10.9304 5.70968 12.7691 8 12.7691C10.2903 12.7691 12.129 10.8982 12.129 8.64011C12.129 6.38204 10.2581 4.51107 8 4.51107ZM8 11.2853C6.54839 11.2853 5.35484 10.0917 5.35484 8.64011C5.35484 7.18849 6.54839 5.99494 8 5.99494C9.45161 5.99494 10.6452 7.18849 10.6452 8.64011C10.6452 10.0917 9.45161 11.2853 8 11.2853ZM13.6452 14.3498C14.2258 13.8014 14.5806 12.9949 14.5806 11.9949V5.34978C14.5806 4.4143 14.2581 3.60785 13.7097 3.0272C13.129 2.44656 12.3226 2.15623 11.3548 2.15623H4.70968C3.74194 2.15623 2.90323 2.44656 2.35484 2.99494C1.77419 3.57559 1.48387 4.38204 1.48387 5.34978V11.9627C1.48387 12.9627 1.77419 13.7691 2.35484 14.3498C2.93548 14.8982 3.74194 15.1885 4.70968 15.1885H11.2903C12.2581 15.1885 13.0645 14.8982 13.6452 14.3498Z" fill="white"/>
<mask id="mask0_0_55" style="mask-type:alpha" maskUnits="userSpaceOnUse" x="0" y="0" width="16" height="17">
<path fill-rule="evenodd" clip-rule="evenodd" d="M14.7097 1.99494C13.871 1.12398 12.6774 0.672363 11.3226 0.672363H4.67742C1.87097 0.672363 0 2.54333 0 5.34978V11.9627C0 13.3498 0.451613 14.5433 1.35484 15.4143C2.22581 16.253 3.3871 16.6724 4.70968 16.6724H11.2903C12.6774 16.6724 13.8387 16.2208 14.6774 15.4143C15.5484 14.5756 16 13.382 16 11.9949V5.34978C16 3.99494 15.5484 2.83365 14.7097 1.99494ZM12.2903 5.34978C12.807 5.34978 13.2258 4.93095 13.2258 4.4143C13.2258 3.89765 12.807 3.47881 12.2903 3.47881C11.7737 3.47881 11.3548 3.89765 11.3548 4.4143C11.3548 4.93095 11.7737 5.34978 12.2903 5.34978ZM8 4.51107C5.74194 4.51107 3.87097 6.34978 3.87097 8.64011C3.87097 10.9304 5.70968 12.7691 8 12.7691C10.2903 12.7691 12.129 10.8982 12.129 8.64011C12.129 6.38204 10.2581 4.51107 8 4.51107ZM8 11.2853C6.54839 11.2853 5.35484 10.0917 5.35484 8.64011C5.35484 7.18849 6.54839 5.99494 8 5.99494C9.45161 5.99494 10.6452 7.18849 10.6452 8.64011C10.6452 10.0917 9.45161 11.2853 8 11.2853ZM13.6452 14.3498C14.2258 13.8014 14.5806 12.9949 14.5806 11.9949V5.34978C14.5806 4.4143 14.2581 3.60785 13.7097 3.0272C13.129 2.44656 12.3226 2.15623 11.3548 2.15623H4.70968C3.74194 2.15623 2.90323 2.44656 2.35484 2.99494C1.77419 3.57559 1.48387 4.38204 1.48387 5.34978V11.9627C1.48387 12.9627 1.77419 13.7691 2.35484 14.3498C2.93548 14.8982 3.74194 15.1885 4.70968 15.1885H11.2903C12.2581 15.1885 13.0645 14.8982 13.6452 14.3498Z" fill="white"/>
</mask>
<g mask="url(#mask0_0_55)">
</g>
</svg>
