<svg width="31" height="31" viewBox="0 0 31 31" fill="none" xmlns="http://www.w3.org/2000/svg">
<path fill-rule="evenodd" clip-rule="evenodd" d="M20.0854 3.875H11.5604C8.02924 3.875 5.16666 6.88824 5.16666 10.6053V19.5789C5.16666 23.296 8.02924 26.3092 11.5604 26.3092H20.0854C23.6166 26.3092 26.4792 23.296 26.4792 19.5789V10.6053C26.4792 6.88824 23.6166 3.875 20.0854 3.875ZM7.29791 10.6053C7.29791 8.12724 9.2063 6.11841 11.5604 6.11841H20.0854C22.4395 6.11841 24.3479 8.12724 24.3479 10.6053V19.5789C24.3479 22.057 22.4395 24.0658 20.0854 24.0658H11.5604C9.2063 24.0658 7.29791 22.057 7.29791 19.5789V10.6053ZM15.8229 20.7007C12.8803 20.7007 10.4948 18.1896 10.4948 15.0921C10.4948 11.9946 12.8803 9.48355 15.8229 9.48355C18.7655 9.48355 21.151 11.9946 21.151 15.0921C21.151 18.1896 18.7655 20.7007 15.8229 20.7007ZM15.8229 18.4572C17.5885 18.4572 19.0198 16.9506 19.0198 15.0921C19.0198 13.2336 17.5885 11.727 15.8229 11.727C14.0573 11.727 12.626 13.2336 12.626 15.0921C12.626 16.9506 14.0573 18.4572 15.8229 18.4572ZM21.151 10.6053C21.7396 10.6053 22.2167 10.1031 22.2167 9.48356C22.2167 8.86405 21.7396 8.36185 21.151 8.36185C20.5625 8.36185 20.0854 8.86405 20.0854 9.48356C20.0854 10.1031 20.5625 10.6053 21.151 10.6053Z" fill="#262626"/>
</svg>
