<svg width="21" height="21" viewBox="0 0 21 21" fill="none" xmlns="http://www.w3.org/2000/svg">
<path fill-rule="evenodd" clip-rule="evenodd" d="M6.38749 5.66447H7.83124V4.9046H13.6062V5.66447H15.05V4.9046H16.4937V7.18421H4.94375V4.9046H6.38749V5.66447ZM4.94375 8.70395V16.3026H16.4937V8.70395H4.94375ZM7.83124 3.38487H13.6062V2.625H15.05V3.38487H16.4938C17.2911 3.38487 17.9375 4.06528 17.9375 4.90461V16.3026C17.9375 17.142 17.2911 17.8224 16.4938 17.8224H4.94375C4.14639 17.8224 3.5 17.142 3.5 16.3026V4.90461C3.5 4.06528 4.14639 3.38487 4.94375 3.38487H6.38749V2.625H7.83124V3.38487Z" fill="#565656"/>
</svg>
