<svg width="24" height="24" viewBox="0 0 24 24" fill="none" xmlns="http://www.w3.org/2000/svg">
<path fill-rule="evenodd" clip-rule="evenodd" d="M12 20.3333C16.6023 20.3333 20.3333 16.6023 20.3333 12C20.3333 7.39761 16.6023 3.66666 12 3.66666C7.39758 3.66666 3.66663 7.39761 3.66663 12C3.66663 16.6023 7.39758 20.3333 12 20.3333ZM12 18.6667C15.6819 18.6667 18.6666 15.6819 18.6666 12C18.6666 8.31809 15.6819 5.33332 12 5.33332C8.31806 5.33332 5.33329 8.31809 5.33329 12C5.33329 15.6819 8.31806 18.6667 12 18.6667ZM11.1666 7.83332H9.49996V13.6667H15.3333V12H11.1666V7.83332Z" fill="#2D2D2D"/>
<mask id="mask0_5366_178" style="mask-type:alpha" maskUnits="userSpaceOnUse" x="3" y="3" width="18" height="18">
<path fill-rule="evenodd" clip-rule="evenodd" d="M12 20.3333C16.6023 20.3333 20.3333 16.6023 20.3333 12C20.3333 7.39761 16.6023 3.66666 12 3.66666C7.39758 3.66666 3.66663 7.39761 3.66663 12C3.66663 16.6023 7.39758 20.3333 12 20.3333ZM12 18.6667C15.6819 18.6667 18.6666 15.6819 18.6666 12C18.6666 8.31809 15.6819 5.33332 12 5.33332C8.31806 5.33332 5.33329 8.31809 5.33329 12C5.33329 15.6819 8.31806 18.6667 12 18.6667ZM11.1666 7.83332H9.49996V13.6667H15.3333V12H11.1666V7.83332Z" fill="white"/>
</mask>
<g mask="url(#mask0_5366_178)">
</g>
</svg>
