<svg width="37" height="37" viewBox="0 0 37 37" fill="none" xmlns="http://www.w3.org/2000/svg">
<path d="M28.2039 8.75574C27.65 9.30964 27.6039 10.1713 28.0962 10.7867C30.3272 13.587 31.4965 17.4181 30.4503 21.4339C29.2348 26.1266 25.5575 29.6347 20.8955 30.5732C13.0486 32.1272 6.17103 26.0651 6.17103 18.4798C6.17103 12.2022 10.8638 7.0325 16.9413 6.27858V9.38657C12.1254 10.202 8.58665 14.7102 9.35595 19.8953C9.95601 23.911 13.2948 27.1421 17.3259 27.6345C22.9265 28.3269 27.7116 23.9572 27.7116 18.4798C27.7116 16.5565 27.1269 14.7871 26.1268 13.31C25.6037 12.5407 24.4805 12.4946 23.8189 13.1408L23.8035 13.1562C23.2804 13.6793 23.2342 14.4948 23.6342 15.1102C24.5574 16.5257 24.9267 18.3413 24.3882 20.2184C23.7881 22.3263 22.0187 24.0034 19.8647 24.4803C15.8643 25.3573 12.3255 22.3417 12.3255 18.4798C12.3255 15.6179 14.2949 13.2331 16.9413 12.5407V15.8333C16.0181 16.3719 15.4027 17.3412 15.4027 18.4798C15.4027 20.1722 16.7874 21.557 18.4799 21.557C20.1724 21.557 21.5571 20.1722 21.5571 18.4798C21.5571 17.3412 20.9417 16.3565 20.0185 15.8333V4.18607C20.0185 3.58602 19.5262 3.09366 18.9261 3.09366C10.6792 2.78594 3.57078 9.34042 3.12458 17.5566C2.57068 27.6345 11.4485 35.743 21.6033 33.5581C27.5731 32.2811 32.1889 27.7114 33.5275 21.757C34.6199 16.895 33.2198 12.2792 30.4964 8.87883C29.9272 8.15569 28.8501 8.10953 28.2039 8.75574Z" fill="#37474F"/>
<mask id="mask0_5366_53" style="mask-type:alpha" maskUnits="userSpaceOnUse" x="3" y="3" width="31" height="31">
<path d="M28.2039 8.75574C27.65 9.30964 27.6039 10.1713 28.0962 10.7867C30.3272 13.587 31.4965 17.4181 30.4503 21.4339C29.2348 26.1266 25.5575 29.6347 20.8955 30.5732C13.0486 32.1272 6.17103 26.0651 6.17103 18.4798C6.17103 12.2022 10.8638 7.0325 16.9413 6.27858V9.38657C12.1254 10.202 8.58665 14.7102 9.35595 19.8953C9.95601 23.911 13.2948 27.1421 17.3259 27.6345C22.9265 28.3269 27.7116 23.9572 27.7116 18.4798C27.7116 16.5565 27.1269 14.7871 26.1268 13.31C25.6037 12.5407 24.4805 12.4946 23.8189 13.1408L23.8035 13.1562C23.2804 13.6793 23.2342 14.4948 23.6342 15.1102C24.5574 16.5257 24.9267 18.3413 24.3882 20.2184C23.7881 22.3263 22.0187 24.0034 19.8647 24.4803C15.8643 25.3573 12.3255 22.3417 12.3255 18.4798C12.3255 15.6179 14.2949 13.2331 16.9413 12.5407V15.8333C16.0181 16.3719 15.4027 17.3412 15.4027 18.4798C15.4027 20.1722 16.7874 21.557 18.4799 21.557C20.1724 21.557 21.5571 20.1722 21.5571 18.4798C21.5571 17.3412 20.9417 16.3565 20.0185 15.8333V4.18607C20.0185 3.58602 19.5262 3.09366 18.9261 3.09366C10.6792 2.78594 3.57078 9.34042 3.12458 17.5566C2.57068 27.6345 11.4485 35.743 21.6033 33.5581C27.5731 32.2811 32.1889 27.7114 33.5275 21.757C34.6199 16.895 33.2198 12.2792 30.4964 8.87883C29.9272 8.15569 28.8501 8.10953 28.2039 8.75574Z" fill="white"/>
</mask>
<g mask="url(#mask0_5366_53)">
</g>
</svg>
