<svg width="16" height="14" viewBox="0 0 16 14" fill="none" xmlns="http://www.w3.org/2000/svg">
<path fill-rule="evenodd" clip-rule="evenodd" d="M9.211 0.114796C10.5075 -0.140114 11.6718 0.0448076 12.6524 0.518066C12.7059 0.543873 12.7575 0.56989 12.8074 0.596013L13.7683 0.207146C14.7579 -0.193344 15.8038 0.644332 15.6299 1.69698C16.1011 2.21467 16.1759 3.07967 15.539 3.64935L14.5535 4.53091C14.5656 5.61489 14.4169 6.58677 13.9604 7.6701C13.1466 9.60112 11.9797 11.0534 10.552 12.0636C9.54287 12.7776 8.46317 13.2309 7.37506 13.4749C6.67176 13.6326 6.07512 13.6818 5.63612 13.6708C4.29601 13.686 3.06162 13.4025 1.96028 12.9204C1.30499 12.6336 0.82359 12.3372 0.534289 12.1137C-0.511581 11.3058 0.0838453 9.63153 1.40501 9.66538C1.65863 9.67188 1.89619 9.66816 2.11837 9.65527C1.69768 9.15649 1.47438 8.65494 1.38369 8.24222C1.35219 8.09888 1.34433 7.95683 1.3572 7.81967C1.26989 7.71434 1.18851 7.60505 1.11307 7.49199C0.578511 6.69082 0.420788 5.8672 0.465062 5.16395C0.468254 5.12058 0.469453 5.10431 0.471024 5.08806L0.474776 5.05295C0.498818 4.84869 0.56444 4.66432 0.660803 4.50463C0.377714 3.60281 0.441976 2.69596 0.708677 1.84216C0.79542 1.56446 0.886741 1.34727 0.960851 1.20151C1.40241 0.333057 2.58481 0.192109 3.21815 0.932432C4.21534 2.09808 5.20031 2.79114 6.13971 3.12697C6.25625 3.16864 6.36821 3.20364 6.47532 3.23265C6.77435 1.34515 8.01677 0.216253 9.211 0.114796ZM7.80984 4.83335C7.80984 4.83335 5.33755 5.40669 2.57881 2.18191C2.57881 2.18191 1.50395 4.29592 3.3672 5.58562C3.3672 5.58562 2.75837 5.69314 2.25622 5.33507C2.25622 5.33507 2.04117 7.16219 4.2627 7.87876H3.08032C3.08032 7.87876 3.40312 9.34781 5.48099 9.67018C5.48099 9.67018 4.6212 10.8167 1.82632 10.745C1.82632 10.745 3.40312 11.9631 5.80379 11.9272C5.80379 11.9272 10.2462 12.1423 12.3602 7.12607C12.88 5.89247 12.826 4.72582 12.7901 4.15227L14.1516 2.9344L12.7901 3.18515C12.7901 3.18515 13.7217 2.5045 13.8295 1.85954L12.3245 2.46858C12.3245 2.46858 11.1959 1.44749 9.27889 1.85954C9.27868 1.85954 7.52338 2.21783 7.80984 4.83335Z" fill="white"/>
<mask id="mask0_0_46" style="mask-type:alpha" maskUnits="userSpaceOnUse" x="0" y="0" width="16" height="14">
<path fill-rule="evenodd" clip-rule="evenodd" d="M9.211 0.114796C10.5075 -0.140114 11.6718 0.0448076 12.6524 0.518066C12.7059 0.543873 12.7575 0.56989 12.8074 0.596013L13.7683 0.207146C14.7579 -0.193344 15.8038 0.644332 15.6299 1.69698C16.1011 2.21467 16.1759 3.07967 15.539 3.64935L14.5535 4.53091C14.5656 5.61489 14.4169 6.58677 13.9604 7.6701C13.1466 9.60112 11.9797 11.0534 10.552 12.0636C9.54287 12.7776 8.46317 13.2309 7.37506 13.4749C6.67176 13.6326 6.07512 13.6818 5.63612 13.6708C4.29601 13.686 3.06162 13.4025 1.96028 12.9204C1.30499 12.6336 0.82359 12.3372 0.534289 12.1137C-0.511581 11.3058 0.0838453 9.63153 1.40501 9.66538C1.65863 9.67188 1.89619 9.66816 2.11837 9.65527C1.69768 9.15649 1.47438 8.65494 1.38369 8.24222C1.35219 8.09888 1.34433 7.95683 1.3572 7.81967C1.26989 7.71434 1.18851 7.60505 1.11307 7.49199C0.578511 6.69082 0.420788 5.8672 0.465062 5.16395C0.468254 5.12058 0.469453 5.10431 0.471024 5.08806L0.474776 5.05295C0.498818 4.84869 0.56444 4.66432 0.660803 4.50463C0.377714 3.60281 0.441976 2.69596 0.708677 1.84216C0.79542 1.56446 0.886741 1.34727 0.960851 1.20151C1.40241 0.333057 2.58481 0.192109 3.21815 0.932432C4.21534 2.09808 5.20031 2.79114 6.13971 3.12697C6.25625 3.16864 6.36821 3.20364 6.47532 3.23265C6.77435 1.34515 8.01677 0.216253 9.211 0.114796ZM7.80984 4.83335C7.80984 4.83335 5.33755 5.40669 2.57881 2.18191C2.57881 2.18191 1.50395 4.29592 3.3672 5.58562C3.3672 5.58562 2.75837 5.69314 2.25622 5.33507C2.25622 5.33507 2.04117 7.16219 4.2627 7.87876H3.08032C3.08032 7.87876 3.40312 9.34781 5.48099 9.67018C5.48099 9.67018 4.6212 10.8167 1.82632 10.745C1.82632 10.745 3.40312 11.9631 5.80379 11.9272C5.80379 11.9272 10.2462 12.1423 12.3602 7.12607C12.88 5.89247 12.826 4.72582 12.7901 4.15227L14.1516 2.9344L12.7901 3.18515C12.7901 3.18515 13.7217 2.5045 13.8295 1.85954L12.3245 2.46858C12.3245 2.46858 11.1959 1.44749 9.27889 1.85954C9.27868 1.85954 7.52338 2.21783 7.80984 4.83335Z" fill="white"/>
</mask>
<g mask="url(#mask0_0_46)">
</g>
</svg>
